<svg width="52" height="61" viewBox="0 0 52 61" fill="none" xmlns="http://www.w3.org/2000/svg">
<path fill-rule="evenodd" clip-rule="evenodd" d="M38.5379 21.4618C42.3318 24.2044 46.9799 25.8183 51.9996 25.8183V16.0492C51.0495 16.0496 50.102 15.9493 49.1726 15.75V23.4398C44.1532 23.4398 39.5058 21.8259 35.7108 19.0833V39.019C35.7108 48.9919 27.7167 57.0759 17.8557 57.0759C14.1766 57.0759 10.7567 55.951 7.91577 54.0218C11.1581 57.3744 15.6797 59.4544 20.6821 59.4544C30.5438 59.4544 38.5382 51.3704 38.5382 41.3971L38.5379 21.4618ZM42.0254 11.6061C40.0864 9.46395 38.8135 6.69537 38.5379 3.63461V2.37817H35.8588C36.5331 6.26814 38.8332 9.59163 42.0254 11.6061ZM14.1527 46.3692C13.0695 44.9328 12.484 43.1755 12.4866 41.3687C12.4866 36.8074 16.1432 33.1093 20.6544 33.1093C21.495 33.1087 22.3307 33.2392 23.132 33.4962V23.5089C22.1957 23.3791 21.2508 23.3241 20.306 23.3444V31.118C19.5043 30.861 18.6683 30.7305 17.8273 30.7311C13.3161 30.7311 9.65985 34.4292 9.65985 38.9909C9.65985 42.2162 11.4875 45.0089 14.1527 46.3692Z" fill="url(#paint0_linear_1_65)"/>
<path fill-rule="evenodd" clip-rule="evenodd" d="M35.7108 19.0833C39.5058 21.8259 44.1532 23.4398 49.1726 23.4398V15.75C46.3708 15.1467 43.8904 13.6658 42.0254 11.6061C38.8333 9.59163 36.5331 6.26814 35.8589 2.37817H28.8219V41.3968C28.8059 45.9455 25.1555 49.6285 20.6541 49.6285C18.0014 49.6285 15.6447 48.35 14.1523 46.3692C11.4871 45.0089 9.65952 42.2162 9.65952 38.9909C9.65952 34.4292 13.3158 30.7311 17.827 30.7311C18.6912 30.7311 19.5243 30.8672 20.3057 31.118V23.3444C10.6181 23.5468 2.82672 31.5519 2.82672 41.3971C2.82672 46.3117 4.76701 50.7671 7.91579 54.0222C10.7567 55.9514 14.1766 57.0763 17.8558 57.0763C27.7167 57.0763 35.7108 48.9919 35.7108 39.0193V19.0833Z" fill="white"/>
<path fill-rule="evenodd" clip-rule="evenodd" d="M49.1726 15.75V13.6707C46.6459 13.6745 44.1691 12.9589 42.0254 11.6057C43.923 13.7067 46.4217 15.1556 49.1726 15.75ZM35.8589 2.37818C35.7944 2.00646 35.7451 1.63223 35.7108 1.25644V0H25.9945V39.019C25.9789 43.5673 22.3288 47.2503 17.827 47.2503C16.5051 47.2503 15.2575 46.9332 14.1523 46.3692C15.6447 48.35 18.0014 49.6285 20.6541 49.6285C25.1552 49.6285 28.8059 45.9455 28.8219 41.3968V2.37818H35.8589ZM20.306 23.3444V21.1307C19.4941 21.0184 18.6756 20.9623 17.8561 20.9627C7.99413 20.9627 0 29.0471 0 39.019C0 45.271 3.14184 50.7808 7.91613 54.0218C4.76736 50.7667 2.82707 46.3113 2.82707 41.3968C2.82707 31.5519 10.6181 23.5468 20.306 23.3444Z" fill="#1F5D61"/>
<defs>
<linearGradient id="paint0_linear_1_65" x1="48.0111" y1="-4.02836" x2="7.50219" y2="-0.875572" gradientUnits="userSpaceOnUse">
<stop stop-color="#FD541F"/>
<stop offset="0.431456" stop-color="#EB1E1E"/>
<stop offset="1" stop-color="#981616"/>
</linearGradient>
</defs>
</svg>
