<svg width="738" height="236" viewBox="0 0 738 236" fill="none" xmlns="http://www.w3.org/2000/svg">
<path d="M28.2405 92V20.832H0.8485V1.75999H79.3125V20.832H51.9205V92H28.2405ZM67.9965 92L110.237 1.75999H129.437L171.933 92H148.253L137.373 67.168L146.461 73.696H93.4685L102.429 67.168L91.6765 92H67.9965ZM119.709 26.08L104.733 61.792L101.149 55.776H138.653L135.452 61.792L120.349 26.08H119.709ZM184.744 115.936C183.208 115.936 181.288 115.851 178.984 115.68C176.68 115.509 174.376 115.168 172.072 114.656V96.608C173.693 96.9493 175.314 97.1627 176.936 97.248C178.557 97.4187 179.837 97.504 180.776 97.504C184.616 97.504 187.261 96.4373 188.712 94.304C190.248 92.1707 191.016 88.7147 191.016 83.936V1.75999H214.696V83.936C214.696 91.104 213.672 97.0773 211.624 101.856C209.661 106.635 206.504 110.176 202.152 112.48C197.8 114.784 191.997 115.936 184.744 115.936ZM231.383 92V1.75999H255.062V92H231.383ZM271.758 92V1.75999H295.438V40.416H295.694L330.254 1.75999H357.902L314.126 49.248V39.904L360.334 92H331.79L295.694 51.296H295.438V92H271.758ZM361.883 92V1.75999H385.562V92H361.883ZM436.178 93.408C428.924 93.408 422.012 92.5547 415.442 90.848C408.956 89.056 403.495 86.6667 399.058 83.68L405.714 65.376C408.53 67.168 411.602 68.704 414.93 69.984C418.258 71.264 421.714 72.288 425.298 73.056C428.967 73.7387 432.679 74.08 436.434 74.08C442.066 74.08 445.948 73.3547 448.082 71.904C450.3 70.4533 451.41 68.576 451.41 66.272C451.41 64.224 450.684 62.6453 449.234 61.536C447.783 60.3413 445.052 59.3173 441.042 58.464L425.426 55.264C417.148 53.5573 410.962 50.6133 406.866 46.432C402.77 42.1653 400.722 36.6187 400.722 29.792C400.722 23.8187 402.3 18.656 405.458 14.304C408.7 9.86666 413.223 6.45333 419.026 4.064C424.828 1.58933 431.612 0.351997 439.378 0.351997C445.778 0.351997 451.794 1.248 457.426 3.03999C463.058 4.74666 467.666 7.136 471.25 10.208L464.594 27.36C461.18 24.8853 457.34 23.008 453.074 21.728C448.807 20.3627 444.071 19.68 438.866 19.68C433.916 19.68 430.162 20.448 427.602 21.984C425.127 23.4347 423.89 25.5253 423.89 28.256C423.89 30.1333 424.615 31.7547 426.066 33.12C427.602 34.4 430.375 35.4667 434.386 36.32L449.746 39.392C458.023 41.0133 464.21 43.9147 468.306 48.096C472.487 52.2773 474.578 57.7387 474.578 64.48C474.578 70.2827 472.956 75.36 469.714 79.712C466.556 84.064 462.119 87.4347 456.402 89.824C450.684 92.2133 443.943 93.408 436.178 93.408ZM506.866 92V20.832H479.474V1.75999H557.938V20.832H530.546V92H506.866ZM546.621 92L588.862 1.75999H608.062L650.558 92H626.878L615.998 67.168L625.086 73.696H572.094L581.054 67.168L570.302 92H546.621ZM598.334 26.08L583.358 61.792L579.774 55.776H617.278L614.077 61.792L598.974 26.08H598.334ZM656.133 92V1.75999H673.541L719.237 58.464H715.525V1.75999H737.413V92H720.005L674.565 35.296H678.277V92H656.133ZM43.3337 232V141.76H87.1097C97.179 141.76 104.902 143.851 110.278 148.032C115.739 152.213 118.47 157.888 118.47 165.056C118.47 170.347 116.891 174.869 113.734 178.624C110.662 182.379 106.438 184.939 101.062 186.304V184.256C107.462 185.365 112.368 187.84 115.782 191.68C119.28 195.435 121.03 200.341 121.03 206.4C121.03 214.336 118.128 220.608 112.326 225.216C106.523 229.739 98.587 232 88.5177 232H43.3337ZM65.9897 214.72H85.4457C89.883 214.72 93.1683 213.909 95.3017 212.288C97.5203 210.667 98.6297 208.149 98.6297 204.736C98.6297 201.237 97.5203 198.72 95.3017 197.184C93.1683 195.648 89.883 194.88 85.4457 194.88H65.9897V214.72ZM65.9897 177.6H82.7577C87.2803 177.6 90.5657 176.832 92.6137 175.296C94.747 173.76 95.8137 171.413 95.8137 168.256C95.8137 165.099 94.747 162.795 92.6137 161.344C90.5657 159.808 87.2803 159.04 82.7577 159.04H65.9897V177.6ZM133.084 232V141.76H156.764V212.416H195.42V232H133.084ZM318.636 233.408C308.14 233.408 299.266 231.488 292.012 227.648C284.844 223.808 279.383 218.432 275.628 211.52C271.959 204.608 270.124 196.544 270.124 187.328C270.124 177.771 272.13 169.493 276.14 162.496C280.236 155.413 286.082 149.952 293.676 146.112C301.271 142.272 310.402 140.352 321.068 140.352C327.639 140.352 333.442 141.12 338.476 142.656C343.596 144.192 347.991 146.411 351.66 149.312L344.364 167.36C341.719 165.568 339.202 164.203 336.812 163.264C334.508 162.24 332.119 161.515 329.644 161.088C327.255 160.661 324.482 160.448 321.324 160.448C312.45 160.448 305.794 162.752 301.356 167.36C297.004 171.883 294.828 178.539 294.828 187.328C294.828 196.032 296.834 202.603 300.844 207.04C304.855 211.477 311.212 213.696 319.916 213.696C322.562 213.696 325.42 213.44 328.492 212.928C331.65 212.416 334.85 211.648 338.092 210.624L333.868 219.072V197.568H315.18V181.184H353.196V226.368C348.332 228.672 342.871 230.421 336.812 231.616C330.839 232.811 324.78 233.408 318.636 233.408ZM414.636 233.408C404.14 233.408 395.266 231.488 388.012 227.648C380.844 223.808 375.383 218.432 371.628 211.52C367.959 204.608 366.124 196.544 366.124 187.328C366.124 177.771 368.13 169.493 372.14 162.496C376.236 155.413 382.082 149.952 389.676 146.112C397.271 142.272 406.402 140.352 417.068 140.352C423.639 140.352 429.442 141.12 434.476 142.656C439.596 144.192 443.991 146.411 447.66 149.312L440.364 167.36C437.719 165.568 435.202 164.203 432.812 163.264C430.508 162.24 428.119 161.515 425.644 161.088C423.255 160.661 420.482 160.448 417.324 160.448C408.45 160.448 401.794 162.752 397.356 167.36C393.004 171.883 390.828 178.539 390.828 187.328C390.828 196.032 392.834 202.603 396.844 207.04C400.855 211.477 407.212 213.696 415.916 213.696C418.562 213.696 421.42 213.44 424.492 212.928C427.65 212.416 430.85 211.648 434.092 210.624L429.868 219.072V197.568H411.18V181.184H449.196V226.368C444.332 228.672 438.871 230.421 432.812 231.616C426.839 232.811 420.78 233.408 414.636 233.408ZM464.556 232V141.76H529.324V159.808H487.212V177.088H526.252V195.264H487.212V213.824H529.324V232H464.556ZM541.681 232V141.76H584.305C594.716 141.76 602.737 144.235 608.369 149.184C614.087 154.133 616.945 161.003 616.945 169.792C616.945 175.68 615.665 180.715 613.105 184.896C610.545 188.992 606.833 192.192 601.969 194.496C597.105 196.715 591.303 197.824 584.561 197.824L585.713 194.624H592.113C595.868 194.624 599.196 195.648 602.097 197.696C604.999 199.744 607.388 202.603 609.265 206.272L622.961 232H597.105L582.385 203.2C581.447 201.323 580.039 200.043 578.161 199.36C576.369 198.677 574.321 198.336 572.017 198.336H565.361V232H541.681ZM565.361 181.568H580.209C584.817 181.568 588.316 180.672 590.705 178.88C593.095 177.003 594.289 174.229 594.289 170.56C594.289 166.976 593.095 164.288 590.705 162.496C588.316 160.704 584.817 159.808 580.209 159.808H565.361V181.568ZM666.351 233.408C659.098 233.408 652.186 232.555 645.615 230.848C639.13 229.056 633.669 226.667 629.231 223.68L635.887 205.376C638.703 207.168 641.775 208.704 645.103 209.984C648.431 211.264 651.887 212.288 655.471 213.056C659.141 213.739 662.853 214.08 666.607 214.08C672.239 214.08 676.122 213.355 678.255 211.904C680.474 210.453 681.583 208.576 681.583 206.272C681.583 204.224 680.858 202.645 679.407 201.536C677.957 200.341 675.226 199.317 671.215 198.464L655.599 195.264C647.322 193.557 641.135 190.613 637.039 186.432C632.943 182.165 630.895 176.619 630.895 169.792C630.895 163.819 632.474 158.656 635.631 154.304C638.874 149.867 643.397 146.453 649.199 144.064C655.002 141.589 661.786 140.352 669.551 140.352C675.951 140.352 681.967 141.248 687.599 143.04C693.231 144.747 697.839 147.136 701.423 150.208L694.767 167.36C691.354 164.885 687.514 163.008 683.247 161.728C678.981 160.363 674.245 159.68 669.039 159.68C664.09 159.68 660.335 160.448 657.775 161.984C655.301 163.435 654.063 165.525 654.063 168.256C654.063 170.133 654.789 171.755 656.239 173.12C657.775 174.4 660.549 175.467 664.559 176.32L679.919 179.392C688.197 181.013 694.383 183.915 698.479 188.096C702.661 192.277 704.751 197.739 704.751 204.48C704.751 210.283 703.13 215.36 699.887 219.712C696.73 224.064 692.293 227.435 686.575 229.824C680.858 232.213 674.117 233.408 666.351 233.408Z" fill="white"/>
<path d="M261.882 125.696C262.385 125.696 262.737 125.998 262.939 126.602C262.939 127.407 262.335 127.911 261.127 128.112C255.489 130.025 249.449 133.498 243.007 138.531C236.665 143.564 230.625 149.655 224.887 156.802C219.249 163.849 214.518 172.204 210.693 181.868C206.968 191.532 205.106 201.297 205.106 211.162C205.106 224.551 209.837 231.245 219.3 231.245C224.836 231.245 231.279 228.829 238.628 223.997C246.077 219.064 253.023 212.924 259.466 205.575C266.009 198.126 271.546 189.418 276.076 179.452C280.606 169.486 282.871 159.923 282.871 150.762C282.871 141.501 279.7 136.87 273.358 136.87C268.224 136.87 262.184 139.638 255.238 145.175C248.292 150.611 242.201 157.557 236.967 166.013C231.833 174.368 229.266 182.271 229.266 189.72C229.266 197.069 231.833 200.743 236.967 200.743C240.188 200.743 243.812 199.233 247.839 196.213C251.966 193.092 255.64 188.965 258.862 183.831C259.264 183.026 259.717 182.623 260.221 182.623C260.825 182.623 261.127 182.925 261.127 183.529C261.127 186.348 257.603 190.777 250.557 196.817C243.611 202.857 237.621 205.877 232.588 205.877C226.648 205.877 223.679 201.095 223.679 191.532C223.679 184.083 226.799 175.627 233.041 166.164C239.282 156.601 246.631 148.547 255.087 142.004C263.543 135.461 270.841 132.189 276.982 132.189C285.035 132.189 289.062 138.179 289.062 150.158C289.062 159.218 286.444 168.983 281.21 179.452C275.975 189.821 269.583 199.082 262.033 207.236C254.583 215.289 246.58 222.034 238.024 227.47C229.467 232.906 221.967 235.624 215.525 235.624C204.351 235.624 198.764 227.671 198.764 211.766C198.764 202.102 200.676 192.589 204.502 183.227C208.327 173.764 212.958 165.711 218.394 159.067C223.93 152.423 229.719 146.484 235.759 141.249C241.899 136.014 247.285 132.139 251.916 129.622C256.647 127.005 259.969 125.696 261.882 125.696Z" fill="#EB211E"/>
</svg>
